<?xml version="1.0" encoding="utf-8"?>
<!-- Generator: Adobe Illustrator 23.0.6, SVG Export Plug-In . SVG Version: 6.00 Build 0)  -->
<svg version="1.1" id="Layer_1" xmlns="http://www.w3.org/2000/svg" xmlns:xlink="http://www.w3.org/1999/xlink" x="0px" y="0px"
	 viewBox="0 0 353.42 50.52" style="enable-background:new 0 0 353.42 50.52;" xml:space="preserve">
<style type="text/css">
	.st0{fill:#FFFFFF;}
</style>
<g>
	<path class="st0" d="M31.69,42.08c-4.02,4.82-9.27,7.24-15.75,7.24H0V1.47h15.95c6.43,0,11.66,2.41,15.68,7.24
		c3.8,4.51,5.7,10.05,5.7,16.62C37.32,31.94,35.44,37.52,31.69,42.08z M29.68,10.59C26.2,6.3,21.62,4.15,15.95,4.15H2.68v42.41
		h13.27c4.91,0,9.18-1.83,12.8-5.49c3.89-3.93,5.83-9.18,5.83-15.75C34.57,19.47,32.94,14.56,29.68,10.59z"/>
	<path class="st0" d="M87.57,43.08c-4.6,4.6-10.52,6.9-17.75,6.9s-13.13-2.28-17.69-6.83c-4.6-4.6-6.9-10.52-6.9-17.75
		S47.5,12.26,52.06,7.7c4.6-4.6,10.52-6.9,17.75-6.9c7.19,0,13.11,2.28,17.75,6.83c4.6,4.6,6.9,10.52,6.9,17.75
		S92.17,38.52,87.57,43.08z M85.63,9.65c-4.11-4.11-9.38-6.16-15.81-6.16c-6.34,0-11.57,2.05-15.68,6.16
		c-4.11,4.11-6.16,9.36-6.16,15.75c0,6.39,2.03,11.61,6.1,15.68c4.11,4.11,9.36,6.16,15.75,6.16c6.43,0,11.7-2.01,15.81-6.03
		c4.06-4.06,6.1-9.33,6.1-15.81C91.72,18.96,89.69,13.71,85.63,9.65z"/>
	<path class="st0" d="M149.81,49.31l-10.18-40.2l-15.74,41.41L108.14,9.04L97.89,49.31h-2.75L107.6,0.07l16.28,42.68L140.16,0
		l12.46,49.31H149.81z"/>
	<path class="st0" d="M160.06,49.31V1.47h2.68v47.84H160.06z"/>
	<path class="st0" d="M172.19,8.71v40.6h-2.68V1.14l35.71,41.88V1.47h2.75v48.64L172.19,8.71z"/>
	<path class="st0" d="M250.71,49.31l-5.49-14.34h-21.77l-5.56,14.34h-2.68L234.3-0.07l19.16,49.38H250.71z M234.3,6.9l-9.78,25.33
		h19.56L234.3,6.9z"/>
	<path class="st0" d="M261.1,8.71v40.6h-2.68V1.14l35.71,41.88V1.47h2.75v48.64L261.1,8.71z"/>
	<path class="st0" d="M315.03,4.22v45.09h-2.75V4.22H301.7V1.47h23.92v2.75H315.03z"/>
	<path class="st0" d="M330.44,49.31V1.47h22.98v2.75h-20.23v17.42h20.23v2.95h-20.23v21.98h20.23v2.75H330.44z"/>
</g>
</svg>
