<?xml version="1.0" encoding="utf-8"?>
<!-- Generator: Adobe Illustrator 23.0.6, SVG Export Plug-In . SVG Version: 6.00 Build 0)  -->
<svg version="1.1" id="Layer_1" xmlns="http://www.w3.org/2000/svg" xmlns:xlink="http://www.w3.org/1999/xlink" x="0px" y="0px"
	 viewBox="0 0 285.51 224.16" style="enable-background:new 0 0 285.51 224.16;" xml:space="preserve">
<style type="text/css">
	.st0{fill:#FFFFFF;}
</style>
<g>
	<path class="st0" d="M79.03,95.85c-0.89-0.43-1.79-0.08-2.56,0.84c-0.32,0.38-0.68,0.76-1.1,1.01c-0.91,0.54-2.12,0.18-2.59-0.69
		c-0.82-1.5-0.81-1.49-2.49-1.21c-0.18,0.03-0.37,0.02-0.65,0.03c-0.62-0.87-1.3-1.74-1.88-2.69c-0.21-0.33-0.22-0.82-0.21-1.24
		c0.02-2.07-0.57-3.93-1.88-5.55c-0.72-0.89-1.08-1.89-1.22-3.06c-0.2-1.68,0.79-2.74,1.72-3.77c1.1-1.23,1.86-2.56,2.56-4.07
		c1.75-3.77,4.76-5.39,9.23-4.02c0.35,0.11,0.76,0.25,1.1,0.17c1.49-0.36,2.92-0.11,4.4,0.16c3.4,0.63,6.6,1.67,9.36,3.83
		c0.81,0.64,1.21,1.46,1.42,2.52c0.36,1.8,0.32,3.57,0.1,5.36c-0.18,1.47-1.18,2.46-2.14,3.44c-1.03,1.05-2.28,1.91-3.2,3.04
		c-0.54,0.66-1.12,1.05-1.83,1.11c-1.78,0.15-2.89,1.31-4.11,2.38c-0.54,0.48-1.25,0.77-1.88,1.14
		C80.51,94.97,79.86,95.35,79.03,95.85z"/>
	<path class="st0" d="M38.7,55.23c-0.55-0.25-1.15-0.51-1.98-0.88c1.1-1.13,2.05-2.08,2.96-3.05c1.47-1.58,2.92-3.18,4.39-4.76
		c0.62-0.66,1.01-1.84,2.48-1.02c-0.37,2.14-2.17,3.4-3.32,4.99C42.03,52.15,40.41,53.48,38.7,55.23z"/>
	<path class="st0" d="M53.44,40.3c-0.62,0.42-1.23,0.83-2.38,1.61c0.36-1.74,0.82-2.33,1.89-2.27
		C53.11,39.86,53.27,40.08,53.44,40.3z"/>
	<path class="st0" d="M199.16,188.51c-0.56-0.14-1.12-0.28-1.72-0.44c2.05-3.38,2.44-3.66,4.16-2.94c-0.85,1.16-1.68,2.31-2.53,3.45
		C199.07,188.59,199.16,188.51,199.16,188.51z"/>
	<path class="st0" d="M210.41,174.47c0.61,1.61,0.61,1.61-1.37,2.59C209.62,175.98,210.02,175.22,210.41,174.47z"/>
	<path class="st0" d="M195.65,191.45c-0.5,0.36-0.8,0.75-1.04,0.72c-0.28-0.04-0.67-0.42-0.72-0.7c-0.03-0.2,0.4-0.66,0.66-0.68
		C194.82,190.76,195.13,191.12,195.65,191.45z"/>
	<g>
		<path class="st0" d="M285.38,104.24c-0.26-1.82-0.48-3.71-0.29-5.53c0.34-3.32,0.61-6.58-0.26-9.89c-0.63-2.39-0.83-4.89-1.4-7.29
			c-0.54-2.29-1.22-4.57-1.99-6.79c-0.71-2.06-0.89-4.45-3.46-5.47c-0.65-0.26-1-1.39-1.4-2.16c-1.46-2.76-2.97-5.51-4.31-8.33
			c-1.25-2.64-3.29-4.62-5.14-6.78c-2.85-3.33-5.48-6.85-8.31-10.2c-1.75-2.08-3.7-3.99-5.53-5.94c-2.46,1.08-2.63,0.92-3.34-1.34
			c-0.42-1.36-1.03-2.79-1.97-3.81c-1.43-1.56-3.14-2.91-4.89-4.12c-1.58-1.1-2.85-2.76-4.98-3c-0.41-0.05-0.83-0.53-1.15-0.89
			c-2.26-2.54-6.02-5.27-8.71-6.32c-0.81-0.32-1.62-0.67-2.39-1.09c-1.62-0.88-3.13-2.32-4.83-2.6c-2.28-0.37-4.13-1.51-6.16-2.32
			c-1.65-0.66-3.1-1.83-4.93-2.95c-0.47,0.06-1.41,0.18-2.39,0.31c-0.22-0.8-0.38-1.39-0.48-1.71c-1.28,0.1-2.39,0.45-3.37,0.22
			c-2.19-0.52-4.34-1.25-6.46-2.03c-3.98-1.47-8.22-1.63-12.33-2.41c-3.47-0.65-7.04-0.74-10.58-1.01
			c-4.19-0.32-8.39-0.82-12.58-0.79c-4.89,0.04-9.78,0.52-14.67,0.89c-1.95,0.15-3.9,0.46-5.83,0.79
			c-3.87,0.67-7.73,1.38-11.59,2.11c-3.76,0.71-7.54,1.32-11.25,2.25c-3.43,0.86-6.73,2.21-10.16,3.1c-2.32,0.6-4.48,1.36-6.49,2.7
			c-1.17,0.78-2.71,1-4.02,1.6c-2.53,1.17-5.11,2.18-7.85,2.77c-0.61,0.13-1.11,0.79-1.66,1.2c-0.47,0.35-0.91,0.77-1.42,1.04
			c-3.65,1.91-7.34,3.77-10.97,5.71c-0.77,0.41-1.38,1.14-2.07,1.72c0.13,0.17,0.26,0.35,0.39,0.52c0.86-0.39,1.72-0.79,3.09-1.42
			c-0.37,0.93-0.42,1.45-0.71,1.7c-0.98,0.84-2.18,1.03-3.32,0.45c-1-0.51-1.74-0.15-2.43,0.4c-2.61,2.05-5.19,4.15-7.77,6.25
			c-0.08,0.07,0.02,0.36,0.04,0.64c0.66-0.05,1.33-0.09,2.19-0.16c-0.49,1.36-1.36,1.65-2.23,1.36c-1.23-0.41-2.11,0.11-3,0.73
			c-1.61,1.13-3.25,2.22-4.75,3.48c-1.79,1.51-3.43,3.19-5.24,4.9c-0.3,1.04,1.6,2.29,0.04,3.53c-0.31-0.34-0.56-0.62-0.96-1.05
			c-0.23,0.82-0.42,1.5-0.67,2.41c-2.47-1.37-3.8,0.03-5.03,1.7c-0.29,0.4-0.51,0.89-0.89,1.17c-2.72,1.97-4.79,4.48-6.67,7.26
			c-1.09,1.61-2.97,2.68-4.52,3.99c-0.14-1.22,0.35-2.19,1.13-3.12c0.55-0.66,1.11-1.42,0.06-2.52c-0.58,0.5-1.23,0.92-1.69,1.48
			c-1.8,2.22-3.67,4.4-5.27,6.76c-2.8,4.14-6.25,7.85-8.44,12.4c-0.47,0.97-0.74,2.38-1.52,2.79c-2.23,1.17-2.66,3.34-3.47,5.27
			c-0.78,1.87-1.4,3.86-1.74,5.86c-0.24,1.36-0.9,1.76-2.11,1.75c-0.72,3.72-0.65,7.55-3.21,10.64c-0.36-0.27-0.78-0.58-1.4-1.04
			c-0.15,0.87-0.5,1.6-0.33,2.17c1.09,3.45-0.91,6.38-1.84,9.34c-0.77,2.48-1.43,4.84-1.41,7.42c0,0.13-0.02,0.26-0.05,0.39H0.02
			c-0.18,1.02,0.65,1.7,2.58,2.4c0.98,0.35,1.86,0.98,2.78,1.52c1.69,0.99,3.37,2,5.06,2.99c0.13,0.08,0.32,0.1,0.48,0.09
			c3.13-0.11,6.27-0.2,9.4-0.39c0.59-0.04,1.35-0.41,1.68-0.86c1.3-1.79,2.52-3.6,2.87-5.74h0c0,0,0,0,0,0c0,0,0,0,0,0h0
			c0.01-0.28,0-0.57,0.03-0.85c0.16-1.26,0.29-2.53,0.53-3.77c0.31-1.63,0.75-3.23,1.05-4.86c0.47-2.51,0.75-5.06,1.35-7.54
			c0.78-3.25,1.78-6.45,2.71-9.66c1.6-5.5,4.35-10.45,7.13-15.41c0.57-1.01,0.84-2.2,1.48-3.15c2.99-4.48,5.84-9.01,9.55-13.03
			c2.43-2.64,4.46-5.71,7.21-8.1c3.06-2.66,6.16-5.27,9.33-7.79c1.75-1.4,3.71-2.53,5.52-3.86c2.67-1.95,4.99-4.46,8.54-4.89
			c0.42-0.05,0.86-0.49,1.17-0.85c2.52-2.96,6.12-4.24,9.41-5.9c4.87-2.47,9.95-4.5,14.94-6.73c1.94-0.87,5.24-0.09,6.08,1.59
			c-0.07,0.72-0.15,1.57-0.24,2.53c1.11,0.34,1.55,0.93,1.94,2.1c0.84,2.51,1.22,5.47,4.04,6.93c0.36,0.19,0.76,0.81,0.72,1.2
			c-0.18,2.13,1.09,3.44,2.33,4.88c0.67,0.78,1.15,1.87,1.37,2.89c0.9,4.21,1.67,8.45,2.47,12.69c0.23,1.24,0.39,2.49,0.63,3.73
			c0.18,0.92,0.41,1.82,0.64,2.73c0.17,0.63,0.4,1.25,0.58,1.88c0.3,1,0.54,2.02,0.89,3c0.33,0.93,1.02,1.79,1.12,2.72
			c0.44,3.9,2.27,7.55,1.93,11.59c-0.05,0.62,0.31,1.29,0.56,1.91c0.47,1.18,1.07,2.31,1.48,3.51c1.07,3.17,2.03,6.39,3.12,9.55
			c0.44,1.28,1.24,2.44,1.67,3.72c1.22,3.6,1.54,7.41,2.72,11.06c1.46,4.52,2.04,9.32,3.2,13.96c1.62,6.46,2.2,13.15,4.44,19.49
			c1.12,3.18,1.45,6.52,0.63,9.91c-0.47,1.94-0.04,3.64,1.05,5.53c2.14,3.71,3.45,7.83,3.44,12.25c0,0.76,0.01,1.79,0.47,2.24
			c1.94,1.92,2.15,4.32,2.31,6.8c0.04,0.56,0.22,1.16,0.5,1.65c1.83,3.16,3.38,6.41,3.36,10.18c0,0.37,0.18,0.78,0.37,1.11
			c0.66,1.18,1.51,2.27,2,3.51c1.14,2.92,4.13,5.91,0.01,8.86c-0.14,0.1-0.14,0.38-0.26,0.52c-0.68,0.82-1.24,1.82-2.09,2.41
			c-1.38,0.96-1.76,1.99-1.05,3.51c0.25,0.53,0.31,1.13,0.47,1.7c0.47,1.63,3.64,3.65,5.3,3.34c3.07-0.57,6.13-1.19,9.2-1.76
			c1.04-0.2,2.22-0.08,3.12-0.53c2.09-1.05,4.08-2.32,6.07-3.57c5.06-3.17,9.7-6.88,14.18-10.8c0.67-0.58,1.33-1.19,2.06-1.68
			c4.23-2.87,8.48-5.71,12.71-8.57c0.4-0.27,0.71-0.69,1.09-0.99c2.05-1.6,4.07-3.24,6.17-4.76c1.58-1.14,3.79-1.78,4.8-3.26
			c1.87-2.74,4.78-3.63,7.31-5.21c2.7-1.68,5.79-2.57,8.14-5.06c2.04-2.16,4.65-4.15,7.39-5.15c2.62-0.96,4.69-2.78,7.3-3.61
			c1.29-0.41,2.1-1.64,1.62-2.73c-0.84-1.89,0.36-2.49,1.45-3.28c0.62-0.45,1.33-0.79,1.94-1.15c-0.41-0.67-0.75-1.22-1.21-1.96
			c1.05-0.96,1.87-2.07,2.96-2.62c1.07-0.53,2.43-0.49,3.69-0.71c-0.97-2.59-0.93-2.95,0.99-4.64c1.16-1.02,2.46-1.88,3.67-2.83
			c1.78-1.4,3.62-2.73,4.3-5.1c0.21-0.73,0.71-1.41,1.17-2.04c1.78-2.45,3.63-4.84,5.38-7.31c0.38-0.53,0.45-1.28,0.67-1.93
			c0.25-0.73,0.52-1.46,0.76-2.2c0.58-1.77,1.37-3.51,1.68-5.33c0.76-4.45,1.3-8.93,2.75-13.25
			C285.28,109.58,285.76,106.96,285.38,104.24z M20.47,78.89c0.2,0.11,0.4,0.21,0.6,0.32c-0.38,0.88-0.44,1.99-1.75,2.24
			C19.7,80.59,20.08,79.74,20.47,78.89z M19.16,81.61c-0.23,0.95-0.45,1.91-0.73,3.09C16.95,82.95,16.94,82.91,19.16,81.61z
			 M14.84,88.84c0.67-0.43,1.37-0.81,2.41-1.43c-0.8,1.59-1.43,2.82-2.07,4.07C13.53,90.24,13.46,89.74,14.84,88.84z M30,66.08
			c-0.39,2.01-1.76,3.13-3.29,4.27c0.25-2.89,2.14-5.55,4.46-6.42C30.73,64.64,30.14,65.32,30,66.08z M113.29,24.87
			c0.91-1.02,1.87-0.77,2.83-0.54C114.75,25.2,114.74,25.2,113.29,24.87z M116.23,24.28c1.03-1.24,2.35-1.25,4.18-0.98
			C118.99,24.77,117.44,23.79,116.23,24.28z M256.84,88.12c-0.1,1.23-0.77,2.41-1.26,3.85c1.66,1.45,1.12,3.65,0.97,5.6
			c-0.25,3.42-0.83,6.84-1.52,10.21c-0.37,1.79-1.24,3.48-1.94,5.2c-1.1,2.69-2.21,5.38-3.4,8.04c-0.72,1.61-1.6,3.16-2.44,4.72
			c-1.88,3.53-3.69,7.1-5.71,10.55c-0.99,1.69-2.13,3.26-2.45,5.24c-0.03,0.19-0.11,0.41-0.24,0.54c-3.57,3.59-5.05,8.59-8.35,12.35
			c-0.07,0.07-0.11,0.18-0.19,0.23c-2.04,1.33-4.14,2.61-3.56,5.61c0.03,0.14-0.15,0.41-0.29,0.49c-2.26,1.16-2.99,3.55-4.41,5.38
			c-0.39,0.51-1.25,0.66-1.84,0.95c-1.87-2.66,0.82-4.25,1.13-6.27c-0.18-0.1-0.36-0.2-0.54-0.3c-0.99,1.22-2.37,2.31-2.87,3.7
			c-0.82,2.31-2.11,4.19-3.66,5.98c-0.43,0.5-0.68,1.16-1.13,1.95c0.74,0.28,1.3,0.49,2.22,0.83c-1.77,2.22-3.22,4.57-5.19,6.35
			c-1.53,1.38-3.57,2.79-5.87,1.14c-0.85,0.54-1.6,1-2.33,1.49c-0.92,0.62-1.21,1.33-0.83,2.51c0.67,2.05,0.54,2.04-1.4,2.95
			c-0.76,0.36-1.43,0.9-2.14,1.37c-0.33,2.05-1.32,3.63-3.03,4.85c-1.12,0.8-2.04,1.85-3.1,2.73c-0.51,0.43-1.16,1.06-1.7,1.02
			c-1.8-0.12-2.58,0.77-3.36,2.25c-0.89,1.69-2.03,1.53-4.15-0.39c-0.63,0.94-1.24,1.85-2.24,3.35c-0.37-1.2-0.85-1.92-0.71-2.5
			c0.7-3.04-0.35-5.82-1.06-8.67c-0.55-2.19-0.5-4.62-1.44-6.61c-1-2.13-1.13-4.34-1.66-6.5c-0.91-3.71-1.77-7.43-2.64-11.14
			c-0.07-0.29-0.14-0.59-0.12-0.88c0.5-5.07-1.68-9.62-2.76-14.39c-0.65-2.87-1.06-5.8-1.66-8.68c-0.49-2.31-1.17-4.57-1.65-6.88
			c-0.96-4.62-1.8-9.27-2.78-13.88c-0.85-4.03-1.7-8.07-2.79-12.05c-1.89-6.93-4.04-13.79-5.94-20.71
			c-1.01-3.69-1.76-7.46-2.57-11.2c-1.3-5.99-2.84-11.91-5.09-17.62c-0.07-0.18-0.2-0.36-0.21-0.55
			c-0.41-5.45-3.57-10.12-4.39-15.47c-0.81-5.33-1.38-10.64-1.15-16.06c0.1-2.37-0.73-4.77-1.17-7.15c-0.08-0.46-0.29-0.9-0.46-1.44
			c3.16-1.41,6.36-1.48,9.58-1.35c1.76,0.07,3.4,0.21,5.19-0.5c1.37-0.54,3.18-0.05,4.79,0.11c5.83,0.57,11.65,1.2,17.48,1.79
			c1.17,0.12,2.34,0.17,3.51,0.29c1.76,0.19,3.72,0.01,5.24,0.73c3.08,1.46,6.44,1.14,9.61,1.84c3.29,0.72,6.61,1.33,9.82,2.41
			c1.39,0.47,2.78,0.96,4.11,1.57c2.46,1.14,5.1,2.08,7.24,3.67c2.08,1.55,4.77,1.89,6.59,3.59c1.97,1.83,4.4,2.73,6.58,4.11
			c5.04,3.18,9.54,7.08,12.88,11.98c1.89,2.77,4.57,4.81,6.22,7.73c1.68,2.98,3.9,5.72,5.13,8.87
			C256.34,73.77,257.41,80.87,256.84,88.12z"/>
		<path class="st0" d="M197.51,188.84c0.03-0.02,0.05-0.04,0.08-0.06c0-0.01,0-0.01,0-0.02L197.51,188.84z"/>
	</g>
</g>
</svg>
